<mxfile host="app.diagrams.net" agent="Mozilla/5.0 (X11; Ubuntu; Linux x86_64; rv:135.0) Gecko/20100101 Firefox/135.0" version="26.0.11">
  <diagram name="Seite-1" id="iLLhKTR9Bfdam6BxOBpo">
    <mxGraphModel dx="652" dy="378" grid="1" gridSize="10" guides="1" tooltips="1" connect="1" arrows="1" fold="1" page="1" pageScale="1" pageWidth="827" pageHeight="1169" math="0" shadow="0">
      <root>
        <mxCell id="0" />
        <mxCell id="1" parent="0" />
        <mxCell id="x6tlMwMQ9ALV0gv3jXaf-1" value="&quot;A&quot;" style="rounded=0;whiteSpace=wrap;html=1;fillColor=#b0e3e6;strokeColor=#0e8088;dashed=1;" vertex="1" parent="1">
          <mxGeometry x="120" y="290" width="70" height="20" as="geometry" />
        </mxCell>
        <mxCell id="x6tlMwMQ9ALV0gv3jXaf-2" value="&quot;B&quot;" style="rounded=0;whiteSpace=wrap;html=1;fillColor=#b0e3e6;strokeColor=#0e8088;dashed=1;" vertex="1" parent="1">
          <mxGeometry x="120" y="310" width="70" height="20" as="geometry" />
        </mxCell>
        <mxCell id="x6tlMwMQ9ALV0gv3jXaf-3" value="&quot;C&quot;" style="rounded=0;whiteSpace=wrap;html=1;fillColor=#b0e3e6;strokeColor=#0e8088;dashed=1;" vertex="1" parent="1">
          <mxGeometry x="120" y="330" width="70" height="20" as="geometry" />
        </mxCell>
        <mxCell id="x6tlMwMQ9ALV0gv3jXaf-4" value="&quot;D&quot;" style="rounded=0;whiteSpace=wrap;html=1;fillColor=#b0e3e6;strokeColor=#0e8088;dashed=1;" vertex="1" parent="1">
          <mxGeometry x="120" y="350" width="70" height="20" as="geometry" />
        </mxCell>
        <mxCell id="x6tlMwMQ9ALV0gv3jXaf-5" value="41" style="rounded=0;whiteSpace=wrap;html=1;fillColor=#bac8d3;strokeColor=#23445d;dashed=1;" vertex="1" parent="1">
          <mxGeometry x="120" y="370" width="70" height="20" as="geometry" />
        </mxCell>
        <mxCell id="x6tlMwMQ9ALV0gv3jXaf-6" value="55" style="rounded=0;whiteSpace=wrap;html=1;fillColor=#bac8d3;strokeColor=#23445d;dashed=1;" vertex="1" parent="1">
          <mxGeometry x="120" y="390" width="70" height="20" as="geometry" />
        </mxCell>
        <mxCell id="x6tlMwMQ9ALV0gv3jXaf-7" value="" style="endArrow=none;html=1;rounded=0;entryX=0;entryY=0;entryDx=0;entryDy=0;" edge="1" parent="1" target="x6tlMwMQ9ALV0gv3jXaf-1">
          <mxGeometry width="50" height="50" relative="1" as="geometry">
            <mxPoint x="120" y="270" as="sourcePoint" />
            <mxPoint x="380" y="390" as="targetPoint" />
          </mxGeometry>
        </mxCell>
        <mxCell id="x6tlMwMQ9ALV0gv3jXaf-8" value="" style="endArrow=none;html=1;rounded=0;entryX=0;entryY=0;entryDx=0;entryDy=0;" edge="1" parent="1">
          <mxGeometry width="50" height="50" relative="1" as="geometry">
            <mxPoint x="190" y="270" as="sourcePoint" />
            <mxPoint x="190" y="290" as="targetPoint" />
          </mxGeometry>
        </mxCell>
        <mxCell id="x6tlMwMQ9ALV0gv3jXaf-9" value="" style="endArrow=none;html=1;rounded=0;entryX=0;entryY=0;entryDx=0;entryDy=0;" edge="1" parent="1">
          <mxGeometry width="50" height="50" relative="1" as="geometry">
            <mxPoint x="120" y="410" as="sourcePoint" />
            <mxPoint x="120" y="430" as="targetPoint" />
          </mxGeometry>
        </mxCell>
        <mxCell id="x6tlMwMQ9ALV0gv3jXaf-10" value="" style="endArrow=none;html=1;rounded=0;entryX=0;entryY=0;entryDx=0;entryDy=0;" edge="1" parent="1">
          <mxGeometry width="50" height="50" relative="1" as="geometry">
            <mxPoint x="190" y="410" as="sourcePoint" />
            <mxPoint x="190" y="430" as="targetPoint" />
          </mxGeometry>
        </mxCell>
        <mxCell id="x6tlMwMQ9ALV0gv3jXaf-21" value="" style="endArrow=classic;html=1;rounded=0;exitX=1;exitY=0.5;exitDx=0;exitDy=0;startArrow=oval;startFill=1;" edge="1" parent="1">
          <mxGeometry width="50" height="50" relative="1" as="geometry">
            <mxPoint x="182" y="300" as="sourcePoint" />
            <mxPoint x="230" y="300" as="targetPoint" />
          </mxGeometry>
        </mxCell>
        <mxCell id="x6tlMwMQ9ALV0gv3jXaf-22" value="?" style="text;html=1;align=center;verticalAlign=middle;whiteSpace=wrap;rounded=0;" vertex="1" parent="1">
          <mxGeometry x="200" y="290" width="20" height="10" as="geometry" />
        </mxCell>
        <mxCell id="x6tlMwMQ9ALV0gv3jXaf-24" value="" style="endArrow=classic;html=1;rounded=0;exitX=1;exitY=0.5;exitDx=0;exitDy=0;startArrow=oval;startFill=1;" edge="1" parent="1">
          <mxGeometry width="50" height="50" relative="1" as="geometry">
            <mxPoint x="182" y="320" as="sourcePoint" />
            <mxPoint x="230" y="320" as="targetPoint" />
          </mxGeometry>
        </mxCell>
        <mxCell id="x6tlMwMQ9ALV0gv3jXaf-25" value="?" style="text;html=1;align=center;verticalAlign=middle;whiteSpace=wrap;rounded=0;" vertex="1" parent="1">
          <mxGeometry x="200" y="310" width="20" height="10" as="geometry" />
        </mxCell>
        <mxCell id="x6tlMwMQ9ALV0gv3jXaf-26" value="" style="endArrow=classic;html=1;rounded=0;exitX=1;exitY=0.5;exitDx=0;exitDy=0;startArrow=oval;startFill=1;" edge="1" parent="1">
          <mxGeometry width="50" height="50" relative="1" as="geometry">
            <mxPoint x="182" y="340" as="sourcePoint" />
            <mxPoint x="230" y="340" as="targetPoint" />
          </mxGeometry>
        </mxCell>
        <mxCell id="x6tlMwMQ9ALV0gv3jXaf-27" value="?" style="text;html=1;align=center;verticalAlign=middle;whiteSpace=wrap;rounded=0;" vertex="1" parent="1">
          <mxGeometry x="200" y="330" width="20" height="10" as="geometry" />
        </mxCell>
        <mxCell id="x6tlMwMQ9ALV0gv3jXaf-28" value="" style="endArrow=classic;html=1;rounded=0;exitX=1;exitY=0.5;exitDx=0;exitDy=0;startArrow=oval;startFill=1;" edge="1" parent="1">
          <mxGeometry width="50" height="50" relative="1" as="geometry">
            <mxPoint x="182" y="360" as="sourcePoint" />
            <mxPoint x="230" y="360" as="targetPoint" />
          </mxGeometry>
        </mxCell>
        <mxCell id="x6tlMwMQ9ALV0gv3jXaf-29" value="?" style="text;html=1;align=center;verticalAlign=middle;whiteSpace=wrap;rounded=0;" vertex="1" parent="1">
          <mxGeometry x="200" y="350" width="20" height="10" as="geometry" />
        </mxCell>
        <mxCell id="x6tlMwMQ9ALV0gv3jXaf-30" value="" style="endArrow=classic;html=1;rounded=0;exitX=1;exitY=0.5;exitDx=0;exitDy=0;startArrow=oval;startFill=1;" edge="1" parent="1">
          <mxGeometry width="50" height="50" relative="1" as="geometry">
            <mxPoint x="182" y="380" as="sourcePoint" />
            <mxPoint x="230" y="380" as="targetPoint" />
          </mxGeometry>
        </mxCell>
        <mxCell id="x6tlMwMQ9ALV0gv3jXaf-31" value="?" style="text;html=1;align=center;verticalAlign=middle;whiteSpace=wrap;rounded=0;" vertex="1" parent="1">
          <mxGeometry x="200" y="370" width="20" height="10" as="geometry" />
        </mxCell>
        <mxCell id="x6tlMwMQ9ALV0gv3jXaf-32" value="" style="endArrow=classic;html=1;rounded=0;exitX=1;exitY=0.5;exitDx=0;exitDy=0;startArrow=oval;startFill=1;" edge="1" parent="1">
          <mxGeometry width="50" height="50" relative="1" as="geometry">
            <mxPoint x="182" y="400" as="sourcePoint" />
            <mxPoint x="230" y="400" as="targetPoint" />
          </mxGeometry>
        </mxCell>
        <mxCell id="x6tlMwMQ9ALV0gv3jXaf-33" value="?" style="text;html=1;align=center;verticalAlign=middle;whiteSpace=wrap;rounded=0;" vertex="1" parent="1">
          <mxGeometry x="200" y="390" width="20" height="10" as="geometry" />
        </mxCell>
        <mxCell id="x6tlMwMQ9ALV0gv3jXaf-34" value="&quot;A&quot;" style="rounded=0;whiteSpace=wrap;html=1;fillColor=#b0e3e6;strokeColor=#0e8088;strokeWidth=3;" vertex="1" parent="1">
          <mxGeometry x="359" y="295" width="70" height="20" as="geometry" />
        </mxCell>
        <mxCell id="x6tlMwMQ9ALV0gv3jXaf-35" value="&quot;B&quot;" style="rounded=0;whiteSpace=wrap;html=1;fillColor=#b0e3e6;strokeColor=#0e8088;strokeWidth=3;" vertex="1" parent="1">
          <mxGeometry x="359" y="315" width="70" height="20" as="geometry" />
        </mxCell>
        <mxCell id="x6tlMwMQ9ALV0gv3jXaf-36" value="&quot;C&quot;" style="rounded=0;whiteSpace=wrap;html=1;fillColor=#b0e3e6;strokeColor=#0e8088;strokeWidth=3;" vertex="1" parent="1">
          <mxGeometry x="359" y="335" width="70" height="20" as="geometry" />
        </mxCell>
        <mxCell id="x6tlMwMQ9ALV0gv3jXaf-37" value="&quot;D&quot;" style="rounded=0;whiteSpace=wrap;html=1;fillColor=#b0e3e6;strokeColor=#0e8088;strokeWidth=3;" vertex="1" parent="1">
          <mxGeometry x="359" y="355" width="70" height="20" as="geometry" />
        </mxCell>
        <mxCell id="x6tlMwMQ9ALV0gv3jXaf-38" value="41" style="rounded=0;whiteSpace=wrap;html=1;fillColor=#bac8d3;strokeColor=#23445d;strokeWidth=3;" vertex="1" parent="1">
          <mxGeometry x="359" y="375" width="70" height="20" as="geometry" />
        </mxCell>
        <mxCell id="x6tlMwMQ9ALV0gv3jXaf-39" value="55" style="rounded=0;whiteSpace=wrap;html=1;fillColor=#bac8d3;strokeColor=#23445d;strokeWidth=3;" vertex="1" parent="1">
          <mxGeometry x="359" y="395" width="70" height="20" as="geometry" />
        </mxCell>
        <mxCell id="x6tlMwMQ9ALV0gv3jXaf-40" value="" style="endArrow=none;html=1;rounded=0;entryX=0;entryY=0;entryDx=0;entryDy=0;" edge="1" parent="1" target="x6tlMwMQ9ALV0gv3jXaf-34">
          <mxGeometry width="50" height="50" relative="1" as="geometry">
            <mxPoint x="359" y="275" as="sourcePoint" />
            <mxPoint x="619" y="395" as="targetPoint" />
          </mxGeometry>
        </mxCell>
        <mxCell id="x6tlMwMQ9ALV0gv3jXaf-41" value="" style="endArrow=none;html=1;rounded=0;entryX=0;entryY=0;entryDx=0;entryDy=0;" edge="1" parent="1">
          <mxGeometry width="50" height="50" relative="1" as="geometry">
            <mxPoint x="429" y="275" as="sourcePoint" />
            <mxPoint x="429" y="295" as="targetPoint" />
          </mxGeometry>
        </mxCell>
        <mxCell id="x6tlMwMQ9ALV0gv3jXaf-42" value="" style="endArrow=none;html=1;rounded=0;entryX=0;entryY=0;entryDx=0;entryDy=0;" edge="1" parent="1">
          <mxGeometry width="50" height="50" relative="1" as="geometry">
            <mxPoint x="359" y="415" as="sourcePoint" />
            <mxPoint x="359" y="435" as="targetPoint" />
          </mxGeometry>
        </mxCell>
        <mxCell id="x6tlMwMQ9ALV0gv3jXaf-43" value="" style="endArrow=none;html=1;rounded=0;entryX=0;entryY=0;entryDx=0;entryDy=0;" edge="1" parent="1">
          <mxGeometry width="50" height="50" relative="1" as="geometry">
            <mxPoint x="429" y="415" as="sourcePoint" />
            <mxPoint x="429" y="435" as="targetPoint" />
          </mxGeometry>
        </mxCell>
        <mxCell id="x6tlMwMQ9ALV0gv3jXaf-52" value="" style="endArrow=classic;html=1;rounded=0;exitX=1;exitY=0.5;exitDx=0;exitDy=0;startArrow=oval;startFill=1;" edge="1" parent="1">
          <mxGeometry width="50" height="50" relative="1" as="geometry">
            <mxPoint x="421" y="385" as="sourcePoint" />
            <mxPoint x="469" y="385" as="targetPoint" />
          </mxGeometry>
        </mxCell>
        <mxCell id="x6tlMwMQ9ALV0gv3jXaf-56" value="" style="endArrow=classic;html=1;rounded=0;exitX=1;exitY=0.5;exitDx=0;exitDy=0;startArrow=oval;startFill=1;" edge="1" parent="1">
          <mxGeometry width="50" height="50" relative="1" as="geometry">
            <mxPoint x="311" y="304.76" as="sourcePoint" />
            <mxPoint x="359" y="304.76" as="targetPoint" />
          </mxGeometry>
        </mxCell>
        <mxCell id="x6tlMwMQ9ALV0gv3jXaf-57" value="" style="endArrow=classic;html=1;rounded=0;exitX=1;exitY=0.5;exitDx=0;exitDy=0;startArrow=oval;startFill=1;" edge="1" parent="1">
          <mxGeometry width="50" height="50" relative="1" as="geometry">
            <mxPoint x="421" y="404.76" as="sourcePoint" />
            <mxPoint x="469" y="404.76" as="targetPoint" />
          </mxGeometry>
        </mxCell>
        <mxCell id="x6tlMwMQ9ALV0gv3jXaf-58" value="&quot;A&quot;" style="rounded=0;whiteSpace=wrap;html=1;fillColor=#b0e3e6;strokeColor=#0e8088;strokeWidth=3;" vertex="1" parent="1">
          <mxGeometry x="528" y="285" width="70" height="20" as="geometry" />
        </mxCell>
        <mxCell id="x6tlMwMQ9ALV0gv3jXaf-59" value="&quot;B&quot;" style="rounded=0;whiteSpace=wrap;html=1;fillColor=#b0e3e6;strokeColor=#0e8088;strokeWidth=3;" vertex="1" parent="1">
          <mxGeometry x="528" y="305" width="70" height="20" as="geometry" />
        </mxCell>
        <mxCell id="x6tlMwMQ9ALV0gv3jXaf-60" value="41" style="rounded=0;whiteSpace=wrap;html=1;fillColor=#b0e3e6;strokeColor=#0e8088;strokeWidth=3;" vertex="1" parent="1">
          <mxGeometry x="528" y="325" width="70" height="20" as="geometry" />
        </mxCell>
        <mxCell id="x6tlMwMQ9ALV0gv3jXaf-61" value="&quot;D&quot;" style="rounded=0;whiteSpace=wrap;html=1;fillColor=#b0e3e6;strokeColor=#0e8088;strokeWidth=3;" vertex="1" parent="1">
          <mxGeometry x="528" y="345" width="70" height="20" as="geometry" />
        </mxCell>
        <mxCell id="x6tlMwMQ9ALV0gv3jXaf-62" value="41" style="rounded=0;whiteSpace=wrap;html=1;fillColor=#bac8d3;strokeColor=#23445d;strokeWidth=3;" vertex="1" parent="1">
          <mxGeometry x="528" y="365" width="70" height="20" as="geometry" />
        </mxCell>
        <mxCell id="x6tlMwMQ9ALV0gv3jXaf-63" value="&quot;E&quot;" style="rounded=0;whiteSpace=wrap;html=1;fillColor=#bac8d3;strokeColor=#23445d;strokeWidth=3;" vertex="1" parent="1">
          <mxGeometry x="528" y="385" width="70" height="20" as="geometry" />
        </mxCell>
        <mxCell id="x6tlMwMQ9ALV0gv3jXaf-64" value="" style="endArrow=none;html=1;rounded=0;entryX=0;entryY=0;entryDx=0;entryDy=0;" edge="1" parent="1" target="x6tlMwMQ9ALV0gv3jXaf-58">
          <mxGeometry width="50" height="50" relative="1" as="geometry">
            <mxPoint x="528" y="265" as="sourcePoint" />
            <mxPoint x="788" y="385" as="targetPoint" />
          </mxGeometry>
        </mxCell>
        <mxCell id="x6tlMwMQ9ALV0gv3jXaf-65" value="" style="endArrow=none;html=1;rounded=0;entryX=0;entryY=0;entryDx=0;entryDy=0;" edge="1" parent="1">
          <mxGeometry width="50" height="50" relative="1" as="geometry">
            <mxPoint x="598" y="265" as="sourcePoint" />
            <mxPoint x="598" y="285" as="targetPoint" />
          </mxGeometry>
        </mxCell>
        <mxCell id="x6tlMwMQ9ALV0gv3jXaf-66" value="" style="endArrow=none;html=1;rounded=0;entryX=0;entryY=0;entryDx=0;entryDy=0;" edge="1" parent="1">
          <mxGeometry width="50" height="50" relative="1" as="geometry">
            <mxPoint x="528" y="405" as="sourcePoint" />
            <mxPoint x="528" y="425" as="targetPoint" />
          </mxGeometry>
        </mxCell>
        <mxCell id="x6tlMwMQ9ALV0gv3jXaf-67" value="" style="endArrow=none;html=1;rounded=0;entryX=0;entryY=0;entryDx=0;entryDy=0;" edge="1" parent="1">
          <mxGeometry width="50" height="50" relative="1" as="geometry">
            <mxPoint x="598" y="405" as="sourcePoint" />
            <mxPoint x="598" y="425" as="targetPoint" />
          </mxGeometry>
        </mxCell>
        <mxCell id="x6tlMwMQ9ALV0gv3jXaf-68" value="" style="endArrow=classic;html=1;rounded=0;exitX=1;exitY=0.5;exitDx=0;exitDy=0;startArrow=oval;startFill=1;" edge="1" parent="1">
          <mxGeometry width="50" height="50" relative="1" as="geometry">
            <mxPoint x="590" y="375" as="sourcePoint" />
            <mxPoint x="638" y="375" as="targetPoint" />
          </mxGeometry>
        </mxCell>
        <mxCell id="x6tlMwMQ9ALV0gv3jXaf-69" value="" style="endArrow=classic;html=1;rounded=0;exitX=1;exitY=0.5;exitDx=0;exitDy=0;startArrow=oval;startFill=1;" edge="1" parent="1">
          <mxGeometry width="50" height="50" relative="1" as="geometry">
            <mxPoint x="480" y="315" as="sourcePoint" />
            <mxPoint x="528" y="315" as="targetPoint" />
          </mxGeometry>
        </mxCell>
        <mxCell id="x6tlMwMQ9ALV0gv3jXaf-70" value="" style="endArrow=classic;html=1;rounded=0;exitX=1;exitY=0.5;exitDx=0;exitDy=0;startArrow=oval;startFill=1;" edge="1" parent="1">
          <mxGeometry width="50" height="50" relative="1" as="geometry">
            <mxPoint x="590" y="334.76" as="sourcePoint" />
            <mxPoint x="638" y="334.76" as="targetPoint" />
          </mxGeometry>
        </mxCell>
      </root>
    </mxGraphModel>
  </diagram>
</mxfile>
